<mxfile host="app.diagrams.net" modified="2024-06-09T07:18:17.498Z" agent="Mozilla/5.0 (Windows NT 10.0; Win64; x64) AppleWebKit/537.36 (KHTML, like Gecko) Chrome/125.0.0.0 Safari/537.36" version="24.5.2" etag="QhdiXiXBru20QD514HHc" type="github">
  <diagram name="Page-1" id="rCk_I5LTfT6IFRea1wAh">
    <mxGraphModel>
      <root>
        <mxCell id="0" />
        <mxCell id="1" parent="0" />
        <mxCell id="2" value="Grandparent" style="whiteSpace=wrap;strokeWidth=2;" vertex="1" parent="1">
          <mxGeometry x="391" width="106" height="34" as="geometry" />
        </mxCell>
        <mxCell id="3" value="Parent 1" style="whiteSpace=wrap;strokeWidth=2;" vertex="1" parent="1">
          <mxGeometry x="172" y="84" width="75" height="34" as="geometry" />
        </mxCell>
        <mxCell id="4" value="Parent 2" style="whiteSpace=wrap;strokeWidth=2;" vertex="1" parent="1">
          <mxGeometry x="641" y="84" width="75" height="34" as="geometry" />
        </mxCell>
        <mxCell id="5" value="Child 1" style="whiteSpace=wrap;strokeWidth=2;" vertex="1" parent="1">
          <mxGeometry x="99" y="167" width="65" height="34" as="geometry" />
        </mxCell>
        <mxCell id="6" value="Child 2" style="whiteSpace=wrap;strokeWidth=2;" vertex="1" parent="1">
          <mxGeometry x="333" y="167" width="65" height="34" as="geometry" />
        </mxCell>
        <mxCell id="7" value="Child 3" style="whiteSpace=wrap;strokeWidth=2;" vertex="1" parent="1">
          <mxGeometry x="489" y="167" width="65" height="34" as="geometry" />
        </mxCell>
        <mxCell id="8" value="Child 4" style="whiteSpace=wrap;strokeWidth=2;" vertex="1" parent="1">
          <mxGeometry x="724" y="167" width="65" height="34" as="geometry" />
        </mxCell>
        <mxCell id="9" value="Grandchild 1" style="whiteSpace=wrap;strokeWidth=2;" vertex="1" parent="1">
          <mxGeometry y="251" width="106" height="34" as="geometry" />
        </mxCell>
        <mxCell id="10" value="Grandchild 2" style="whiteSpace=wrap;strokeWidth=2;" vertex="1" parent="1">
          <mxGeometry x="156" y="251" width="106" height="34" as="geometry" />
        </mxCell>
        <mxCell id="11" value="Grandchild 3" style="whiteSpace=wrap;strokeWidth=2;" vertex="1" parent="1">
          <mxGeometry x="312" y="251" width="106" height="34" as="geometry" />
        </mxCell>
        <mxCell id="12" value="Grandchild 4" style="whiteSpace=wrap;strokeWidth=2;" vertex="1" parent="1">
          <mxGeometry x="469" y="251" width="106" height="34" as="geometry" />
        </mxCell>
        <mxCell id="13" value="Grandchild 5" style="whiteSpace=wrap;strokeWidth=2;" vertex="1" parent="1">
          <mxGeometry x="625" y="251" width="106" height="34" as="geometry" />
        </mxCell>
        <mxCell id="14" value="Grandchild 6" style="whiteSpace=wrap;strokeWidth=2;" vertex="1" parent="1">
          <mxGeometry x="781" y="251" width="106" height="34" as="geometry" />
        </mxCell>
        <mxCell id="15" value="" style="curved=1;startArrow=none;endArrow=block;exitX=-0.0020881868758291567;exitY=0.7727120336641266;entryX=0.49687505086263023;entryY=-0.00980388416963465;" edge="1" parent="1" source="2" target="3">
          <mxGeometry relative="1" as="geometry">
            <Array as="points">
              <mxPoint x="209" y="59" />
            </Array>
          </mxGeometry>
        </mxCell>
        <mxCell id="16" value="" style="curved=1;startArrow=none;endArrow=block;exitX=0.9957989746669553;exitY=0.7727922460100707;entryX=0.49333343505859373;entryY=-0.00980388416963465;" edge="1" parent="1" source="2" target="4">
          <mxGeometry relative="1" as="geometry">
            <Array as="points">
              <mxPoint x="678" y="59" />
            </Array>
          </mxGeometry>
        </mxCell>
        <mxCell id="17" value="" style="curved=1;startArrow=none;endArrow=block;exitX=0.07791393453966142;exitY=0.9803922316607308;entryX=0.49503209040715146;entryY=0.009803996366613051;" edge="1" parent="1" source="3" target="5">
          <mxGeometry relative="1" as="geometry">
            <Array as="points">
              <mxPoint x="131" y="142" />
            </Array>
          </mxGeometry>
        </mxCell>
        <mxCell id="18" value="" style="curved=1;startArrow=none;endArrow=block;exitX=0.9956944783528646;exitY=0.7800286015705855;entryX=0.49911868755634015;entryY=0.009803996366613051;" edge="1" parent="1" source="3" target="6">
          <mxGeometry relative="1" as="geometry">
            <Array as="points">
              <mxPoint x="365" y="142" />
            </Array>
          </mxGeometry>
        </mxCell>
        <mxCell id="19" value="" style="curved=1;startArrow=none;endArrow=block;exitX=-0.005485992431640625;exitY=0.7799008814607852;entryX=0.5039263798640324;entryY=0.009803996366613051;" edge="1" parent="1" source="4" target="7">
          <mxGeometry relative="1" as="geometry">
            <Array as="points">
              <mxPoint x="522" y="142" />
            </Array>
          </mxGeometry>
        </mxCell>
        <mxCell id="20" value="" style="curved=1;startArrow=none;endArrow=block;exitX=0.9126578137131901;exitY=0.9803922316607308;entryX=0.49471165583683896;entryY=0.009803996366613051;" edge="1" parent="1" source="4" target="8">
          <mxGeometry relative="1" as="geometry">
            <Array as="points">
              <mxPoint x="756" y="142" />
            </Array>
          </mxGeometry>
        </mxCell>
        <mxCell id="21" value="" style="curved=1;startArrow=none;endArrow=block;exitX=0.011615417726802836;exitY=1.0000001121969784;entryX=0.5008353107380417;entryY=1.1219697840073529e-7;" edge="1" parent="1" source="5" target="9">
          <mxGeometry relative="1" as="geometry">
            <Array as="points">
              <mxPoint x="53" y="226" />
            </Array>
          </mxGeometry>
        </mxCell>
        <mxCell id="22" value="" style="curved=1;startArrow=none;endArrow=block;exitX=0.9784487630875001;exitY=1.0000001121969784;entryX=0.5025059322141251;entryY=1.1219697840073529e-7;" edge="1" parent="1" source="5" target="10">
          <mxGeometry relative="1" as="geometry">
            <Array as="points">
              <mxPoint x="209" y="226" />
            </Array>
          </mxGeometry>
        </mxCell>
        <mxCell id="23" value="" style="curved=1;startArrow=none;endArrow=block;exitX=0.49911868755634015;exitY=1.0000001121969784;entryX=0.5041765536902085;entryY=1.1219697840073529e-7;" edge="1" parent="1" source="6" target="11">
          <mxGeometry relative="1" as="geometry">
            <Array as="points" />
          </mxGeometry>
        </mxCell>
        <mxCell id="24" value="" style="curved=1;startArrow=none;endArrow=block;exitX=0.5039263798640324;exitY=1.0000001121969784;entryX=0.4976907046336048;entryY=1.1219697840073529e-7;" edge="1" parent="1" source="7" target="12">
          <mxGeometry relative="1" as="geometry">
            <Array as="points" />
          </mxGeometry>
        </mxCell>
        <mxCell id="25" value="" style="curved=1;startArrow=none;endArrow=block;exitX=0.011294983156489462;exitY=1.0000001121969784;entryX=0.5006388178411519;entryY=1.1219697840073529e-7;" edge="1" parent="1" source="8" target="13">
          <mxGeometry relative="1" as="geometry">
            <Array as="points">
              <mxPoint x="678" y="226" />
            </Array>
          </mxGeometry>
        </mxCell>
        <mxCell id="26" value="" style="curved=1;startArrow=none;endArrow=block;exitX=0.9781283285171885;exitY=1.0000001121969784;entryX=0.5023094393172354;entryY=1.1219697840073529e-7;" edge="1" parent="1" source="8" target="14">
          <mxGeometry relative="1" as="geometry">
            <Array as="points">
              <mxPoint x="834" y="226" />
            </Array>
          </mxGeometry>
        </mxCell>
      </root>
    </mxGraphModel>
  </diagram>
</mxfile>
